<svg width="12" height="15" viewBox="0 0 12 15" fill="none" xmlns="http://www.w3.org/2000/svg">
<path d="M2.15479 6.12689V4.84517C2.15479 2.72392 2.79565 1 5.99995 1C9.20426 1 9.84512 2.72392 9.84512 4.84517V6.12689" stroke="#292D32" stroke-linecap="round" stroke-linejoin="round"/>
<path d="M5.99986 11.5739C6.8847 11.5739 7.60201 10.8566 7.60201 9.97172C7.60201 9.08688 6.8847 8.36957 5.99986 8.36957C5.11501 8.36957 4.39771 9.08688 4.39771 9.97172C4.39771 10.8566 5.11501 11.5739 5.99986 11.5739Z" stroke="#292D32" stroke-linecap="round" stroke-linejoin="round"/>
<path d="M8.74648 14H3.25338C1.05615 14 0.506836 13.3591 0.506836 10.7957V9.51394C0.506836 6.95049 1.05615 6.30963 3.25338 6.30963H8.74648C10.9437 6.30963 11.493 6.95049 11.493 9.51394V10.7957C11.493 13.3591 10.9437 14 8.74648 14Z" stroke="#292D32" stroke-linecap="round" stroke-linejoin="round"/>
</svg>
