<svg width="17" height="18" viewBox="0 0 17 18" fill="none" xmlns="http://www.w3.org/2000/svg">
<path fill-rule="evenodd" clip-rule="evenodd" d="M8.08329 17.0833C3.62132 17.0833 0 13.47 0 8.99998C0 4.538 3.62132 0.916687 8.08329 0.916687C12.5534 0.916687 16.1666 4.538 16.1666 8.99998C16.1666 13.47 12.5534 17.0833 8.08329 17.0833ZM10.6617 11.999C10.7587 12.0556 10.8638 12.0879 10.977 12.0879C11.1791 12.0879 11.3812 11.9828 11.4943 11.7888C11.6641 11.5059 11.5752 11.1341 11.2842 10.9562L8.40651 9.24258V5.5081C8.40651 5.16861 8.13168 4.90186 7.80026 4.90186C7.46885 4.90186 7.19402 5.16861 7.19402 5.5081V9.59017C7.19402 9.80033 7.30718 9.99433 7.4931 10.1075L10.6617 11.999Z" fill="#00B866"/>
</svg>
