<svg width="12" height="12" viewBox="0 0 12 12" fill="none" xmlns="http://www.w3.org/2000/svg">
<path d="M9.73998 2.58466C8.85705 1.68926 7.71433 1.11989 6.47416 0.946684L6.82764 0.600136C6.96769 0.462839 6.96769 0.240253 6.82764 0.102955C6.68762 -0.0343184 6.46056 -0.0343184 6.32052 0.102955L5.41239 0.993254C5.27235 1.13053 5.27235 1.35314 5.41239 1.49044L6.32049 2.38073C6.39052 2.44938 6.48229 2.48372 6.57404 2.48372C6.6658 2.48372 6.7576 2.44938 6.82759 2.38073C6.96764 2.24346 6.96764 2.02085 6.82759 1.88355L6.62451 1.68445C7.60976 1.87348 8.5134 2.3524 9.2243 3.07334C10.1209 3.98262 10.6147 5.18009 10.6147 6.44514C10.6147 9.12039 8.3947 11.2969 5.66596 11.2969C2.93723 11.2969 0.717189 9.12039 0.717189 6.44516C0.717189 5.42434 1.03674 4.44783 1.64134 3.62124C2.23338 2.81177 3.04954 2.20777 4.00165 1.87453C4.18817 1.80923 4.28537 1.60809 4.21879 1.42521C4.15222 1.24235 3.947 1.14705 3.76049 1.21233C2.67029 1.59391 1.73596 2.28523 1.05848 3.2115C0.366006 4.15829 0 5.27647 0 6.44518C0 7.92894 0.589362 9.32388 1.65953 10.3731C2.72969 11.4222 4.15253 12 5.66596 12C7.1794 12 8.60223 11.4222 9.6724 10.373C10.7426 9.32385 11.3319 7.92892 11.3319 6.44516C11.3319 4.99676 10.7665 3.62574 9.73998 2.58466Z" fill="#F9E109"/>
<path d="M1.98145 6.44526C1.98145 8.43696 3.63423 10.0573 5.66579 10.0573C7.69732 10.0573 9.35011 8.43696 9.35011 6.44526C9.35011 4.45356 7.69732 2.83313 5.66579 2.83313C3.63421 2.83313 1.98145 4.45353 1.98145 6.44526ZM5.88592 6.75817C5.36973 6.57927 5.07067 6.43827 4.85369 6.27142C4.58666 6.06608 4.46443 5.71145 4.53466 5.34594C4.61088 4.94942 4.89292 4.63377 5.27076 4.52218C5.276 4.52063 5.28114 4.51939 5.28635 4.51789V4.37633C5.28635 4.18217 5.4469 4.02477 5.64494 4.02477C5.84298 4.02477 6.00354 4.18217 6.00354 4.37633V4.49551C6.25391 4.553 6.42866 4.6652 6.49931 4.71697C6.65793 4.83324 6.69039 5.05353 6.57182 5.20907C6.45322 5.3646 6.22857 5.39638 6.06988 5.28015C5.99395 5.22451 5.78439 5.10479 5.47762 5.1954C5.29639 5.24893 5.24951 5.4238 5.23945 5.47614C5.21958 5.5795 5.24241 5.67679 5.29627 5.71818C5.48386 5.86239 5.82042 5.98972 6.12491 6.09524C6.68193 6.28827 6.99166 6.79417 6.89565 7.35407C6.84851 7.62897 6.70746 7.88404 6.49842 8.07234C6.35467 8.20181 6.18716 8.29387 6.00354 8.34581V8.51414C6.00354 8.70829 5.84298 8.8657 5.64494 8.8657C5.4469 8.8657 5.28635 8.70829 5.28635 8.51414V8.38038C5.04779 8.35289 4.84872 8.28086 4.58099 8.10916C4.41525 8.00287 4.3688 7.78497 4.47722 7.62248C4.58563 7.45996 4.80791 7.41445 4.97363 7.52074C5.22185 7.67995 5.31571 7.69457 5.64255 7.69235C5.96436 7.69024 6.15106 7.45509 6.18838 7.23749C6.20665 7.13123 6.21365 6.87175 5.88592 6.75817Z" fill="#F9E109"/>
</svg>
